# xmcd CD database file
#
# Track frame offsets:
#	150
#	14370
#	26948
#	41638
#	58030
#	69103
#	81753
#	94433
#	107055
#	126591
#	144916
#	176366
#	193107
#	214561
#	237746
#	253711
#	269576
#	295436
#
# Disc length: 4255 seconds
#
# Revision: 0
# Processed by: cddbd v1.5.1PL2 Copyright (c) Steve Scherf et al.
# Submitted via: CDex 1.50
#
DISCID=16109d12
DTITLE=Edmond Hall - Flyin' High
DYEAR=1949
DGENRE=Jazz
TTITLE0=Rumpus On Rampart Street
TTITLE1=Neighbors
TTITLE2=Rose In Her Window
TTITLE3=Flyin' High
TTITLE4=African Tempo
TTITLE5=Swingin'
TTITLE6=Hallelujah
TTITLE7=Dawn On The Desert
TTITLE8=Lover
TTITLE9=African Fu-Fu
TTITLE10=Singin' The Blues
TTITLE11=Carry Me Back To Old Virginny
TTITLE12=Robbins Nest
TTITLE13=St. Louis Blues
TTITLE14=Jack The Bear
TTITLE15=Lonely Moments
TTITLE16=I Get The Blues When It Rains
TTITLE17=Panama
EXTD=YEAR: 1949
EXTT0=
EXTT1=
EXTT2=
EXTT3=
EXTT4=
EXTT5=
EXTT6=
EXTT7=
EXTT8=
EXTT9=
EXTT10=
EXTT11=
EXTT12=
EXTT13=
EXTT14=
EXTT15=
EXTT16=
EXTT17=
PLAYORDER=
